<?xml version="1.0" encoding="utf-8"?>
<!-- Generator: Adobe Illustrator 16.0.0, SVG Export Plug-In . SVG Version: 6.00 Build 0)  -->
<!DOCTYPE svg PUBLIC "-//W3C//DTD SVG 1.1//EN" "http://www.w3.org/Graphics/SVG/1.1/DTD/svg11.dtd">
<svg version="1.1" id="Layer_1" xmlns="http://www.w3.org/2000/svg" xmlns:xlink="http://www.w3.org/1999/xlink" x="0px" y="0px"
	 width="80px" height="80px" viewBox="0 0 80 80" enable-background="new 0 0 80 80" xml:space="preserve">
<g>
	<rect x="39.026" y="26.714" fill="#1A6BFF" width="2.234" height="1.157"/>
	<path fill="#1A6BFF" d="M26.57,58.352c0,0.906-0.972,1.648-2.162,1.648h-5.553c-1.189,0-2.164-0.741-2.164-1.648
		c0-0.906,0.974-1.647,2.164-1.647h1.001V41.662h3.551v15.042h1.002C25.597,56.705,26.57,57.445,26.57,58.352z M61.053,56.705H60.05
		V41.663h-3.552v15.042h-1c-1.189,0-2.164,0.74-2.164,1.646S54.307,60,55.496,60h5.554c1.189,0,2.162-0.739,2.162-1.646
		C63.212,57.445,62.239,56.705,61.053,56.705z M63.309,20.839v3.211v1.085v0.962v2.264v0.948v0.37v8.577
		c0,0.952-0.779,1.728-1.729,1.728h-1.97h-4.414v-7.722c0-1.14-0.932-2.072-2.071-2.072H27.399c-1.14,0-2.072,0.933-2.072,2.072
		v7.722h-0.17h-3.992h-2.619c-0.953,0-1.73-0.778-1.73-1.729V29.68v-1.319v-2.263v-0.962V20.84c0-0.46,0.376-0.838,0.839-0.838
		h0.606c0.449,0,0.815,0.357,0.836,0.801h41.928C61.047,20.358,61.414,20,61.861,20h0.606C62.934,20,63.309,20.378,63.309,20.839z
		 M59.939,26.098H19.101v2.264h40.836L59.939,26.098L59.939,26.098z M61.023,22.418H19.101v0.685h41.922V22.418L61.023,22.418z"/>
	<g>
		<path fill="#1A6BFF" d="M52.879,55.764c0,1.373-1.125,2.5-2.5,2.5H29.58c-1.375,0-2.5-1.127-2.5-2.5V34.556
			c0-1.375,1.125-2.5,2.5-2.5h20.799c1.375,0,2.5,1.125,2.5,2.5V55.764z"/>
	</g>
	<g>
		<path fill="#FFFFFF" d="M51.445,54.811c0,1.099-0.898,1.998-1.998,1.998H30.512c-1.101,0-2-0.899-2-1.998v-19.3c0-1.1,0.901-2,2-2
			h18.937c1.099,0,1.996,0.9,1.996,2V54.811L51.445,54.811z"/>
	</g>
	<g>
		<g>
			<g>
				<g>
					<g>
						<defs>
							<path id="SVGID_1_" d="M51.48,55.689c0,0.652-0.535,1.188-1.188,1.188H29.667c-0.653,0-1.188-0.534-1.188-1.188v-20.99
								c0-0.653,0.536-1.188,1.188-1.188h20.627c0.653,0,1.188,0.536,1.188,1.188v20.99H51.48z"/>
						</defs>
						<clipPath id="SVGID_2_">
							<use xlink:href="#SVGID_1_"  overflow="visible"/>
						</clipPath>
						<g clip-path="url(#SVGID_2_)">
							<g>
								<path fill="#1A6BFF" d="M26,60.016c0.276-0.234,7.088-17.121,7.088-17.121c1.068-2.887,4.892-3.949,6.736,0.026
									c0.482,1.043,6.074,17.095,6.074,17.095H26L26,60.016z"/>
								<path fill="#1A6BFF" d="M41.934,60.016c0.152-0.192,3.918-14.084,3.918-14.084c0.59-2.375,2.701-3.25,3.721,0.022
									c0.269,0.854,3.357,14.062,3.357,14.062H41.934z"/>
							</g>
							<circle fill="#1A6BFF" cx="45.898" cy="37.152" r="2.022"/>
						</g>
					</g>
				</g>
			</g>
		</g>
	</g>
</g>
</svg>
