<?xml version="1.0" encoding="utf-8"?>
<!-- Generator: Adobe Illustrator 16.0.0, SVG Export Plug-In . SVG Version: 6.00 Build 0)  -->
<!DOCTYPE svg PUBLIC "-//W3C//DTD SVG 1.1//EN" "http://www.w3.org/Graphics/SVG/1.1/DTD/svg11.dtd">
<svg version="1.1" xmlns="http://www.w3.org/2000/svg" xmlns:xlink="http://www.w3.org/1999/xlink" x="0px" y="0px" width="208px"
	 height="32px" viewBox="0 0 208 32" enable-background="new 0 0 208 32" xml:space="preserve">
<g id="Capa_1">
	<g>
		<g>
			<path fill="#1C3664" d="M69.768,10.121c2.648,0,3.959,1.361,3.959,4.058v4.566c0,2.696-1.311,4.057-3.959,4.057h-5.393v-1.749
				h5.053c1.676,0,2.527-0.874,2.527-2.6v-3.983c0-1.725-0.851-2.574-2.527-2.574h-3.523c-1.65,0-2.501,0.85-2.501,2.574v12.633
				H61.63V14.178c0-2.696,1.312-4.058,3.96-4.058H69.768z"/>
			<path fill="#1C3664" d="M80.044,10.146v8.307c0,1.726,0.85,2.6,2.501,2.6h3.474c1.677,0,2.526-0.874,2.526-2.6v-8.307h1.749
				v8.599c0,2.696-1.334,4.057-3.958,4.057H82.23c-2.647,0-3.959-1.36-3.959-4.057v-8.599H80.044z"/>
			<path fill="#1C3664" d="M96.684,4.898v13.555c0,1.726,0.851,2.6,2.503,2.6h3.521c1.677,0,2.527-0.874,2.527-2.6v-3.983
				c0-1.725-0.85-2.574-2.527-2.574h-5.052v-1.774h5.393c2.647,0,3.958,1.361,3.958,4.058v4.566c0,2.696-1.311,4.057-3.958,4.057
				h-4.178c-2.648,0-3.959-1.36-3.959-4.057V4.898H96.684z"/>
			<path fill="#1C3664" d="M113.422,4.898v17.903h-1.774V4.898H113.422z"/>
			<path fill="#1C3664" d="M119.982,4.898v2.818h-1.774V4.898H119.982z M119.982,10.243v12.559h-1.774V10.243H119.982z"/>
			<path fill="#1C3664" d="M132.735,10.121c2.648,0,3.959,1.361,3.959,4.058v8.623c0,2.867-1.311,4.301-3.959,4.301h-5.806v-1.726
				h5.466c1.676,0,2.526-0.922,2.526-2.77v-8.138c0-1.725-0.85-2.574-2.526-2.574h-3.498c-1.677,0-2.527,0.85-2.527,2.574v3.474
				c0,1.629,0.85,2.429,2.527,2.429h5.052v1.652h-5.393c-2.647,0-3.96-1.263-3.96-3.813v-4.033c0-2.696,1.313-4.058,3.96-4.058
				H132.735z"/>
			<path fill="#1C3664" d="M148.598,10.146v1.749h-3.109c-1.651,0-2.501,0.874-2.501,2.599v8.308h-1.774v-8.598
				c0-2.698,1.313-4.057,3.96-4.057H148.598z"/>
			<path fill="#1C3664" d="M160.136,10.121c2.624,0,3.961,1.361,3.961,4.058v4.566c0,2.696-1.337,4.057-3.961,4.057h-4.469
				c-2.259,0-3.376-1.117-3.376-3.352v-0.997c0-1.869,1.044-2.817,3.206-2.817h5.855v1.433h-5.393c-1.313,0-1.968,0.559-1.968,1.676
				v0.583c0,1.287,0.679,1.944,1.992,1.944h3.862c1.652,0,2.478-0.851,2.478-2.575v-4.349c0-1.652-0.801-2.502-2.406-2.502h-7.239
				v-1.726H160.136z"/>
			<path fill="#1C3664" d="M176,4.898V6.38h-3.936c-1.141,0-1.7,0.583-1.7,1.749v1.992h3.54v1.58h-3.54v11.101h-1.749V8.081
				c0-2.138,1.02-3.183,3.085-3.183H176z"/>
		</g>
		<path fill="none" d="M36.079,22.111c3.164,3.745,14.245,6.408,19.973-2.78"/>
		<path fill="none" d="M36.079,22.103c3.81,3.082,15.195,3.614,19.094-6.488"/>
		<g>
			<circle fill="#00AEEF" cx="42.579" cy="16" r="10.579"/>
			<g>
				<path d="M35.643,22.223v0.008c2.301,2.442,8.233,4.183,13.469,2.087c1.946-1.531,3.342-3.729,3.843-6.251
					C48.421,25.014,39.158,24.763,35.643,22.223z"/>
				<path fill="#FFF200" d="M52.47,12.247c-1.933,9.795-12.49,11.931-16.828,9.973l0,0.003c3.516,2.54,12.779,2.791,17.312-4.156
					c0.132-0.669,0.204-1.36,0.204-2.067C53.159,14.678,52.913,13.414,52.47,12.247z"/>
				<g>
					<path fill="#EC008C" d="M35.643,22.224c0.007,0.002,0.014,0.002,0.021,0.004c-0.007-0.003-0.015-0.005-0.021-0.008
						L35.643,22.224z"/>
					<path fill="#EC008C" d="M52.47,12.247c-0.527-1.389-1.338-2.639-2.363-3.679c0.42,10.327-9.713,14.703-14.443,13.66
						C40.015,24.17,50.541,22.027,52.47,12.247z"/>
				</g>
			</g>
		</g>
		<path fill="#FFFFFF" d="M42.824,5.536c-0.519,0.598-1.207,1.26-2.104,1.879c-1.299,0.899-3.38,2.231-4.799,2.849
			c0,0,0.7,2.146,0.339,4.963c-0.253,1.976-0.765,3.533-1.151,4.527c-0.253,0.003-0.5,0.11-0.671,0.322
			c-0.247,0.309-0.248,0.731-0.034,1.041l3.499-4.308l3.538-4.413c-0.462-0.502-0.504-1.277-0.064-1.825
			c0.485-0.606,1.371-0.704,1.977-0.218c0.605,0.485,0.703,1.371,0.218,1.976c-0.396,0.494-1.058,0.645-1.617,0.421l-7.076,8.712
			c0.328,0.093,0.696-0.01,0.923-0.294c0.166-0.208,0.218-0.466,0.171-0.709c0.887-0.594,2.297-1.435,4.176-2.113
			c2.672-0.965,4.919-0.75,4.919-0.75c0.292-1.518,1.141-3.841,1.735-5.304c0.955-2.354,2.387-3.672,2.845-4.052
			C47.831,6.605,45.446,5.595,42.824,5.536z"/>
	</g>
</g>
<g id="Capa_2">
</g>
<g id="Capa_3">
</g>
</svg>
