<?xml version="1.0" encoding="utf-8"?>
<!-- Generator: Adobe Illustrator 16.0.0, SVG Export Plug-In . SVG Version: 6.00 Build 0)  -->
<!DOCTYPE svg PUBLIC "-//W3C//DTD SVG 1.1//EN" "http://www.w3.org/Graphics/SVG/1.1/DTD/svg11.dtd">
<svg version="1.1" id="Layer_1" xmlns="http://www.w3.org/2000/svg" xmlns:xlink="http://www.w3.org/1999/xlink" x="0px" y="0px"
	 width="80px" height="80px" viewBox="0 0 80 80" enable-background="new 0 0 80 80" xml:space="preserve">
<g>
	<g>
		<path fill="#1A6BFF" stroke="#FFFFFF" d="M53.752,39.137L53.752,39.137L53.752,39.137H25.333v0.002
			c-3.416,0.012-6.182,3.729-6.182,8.314c0,4.581,2.766,8.299,6.182,8.314l0,0h28.419l0,0l0,0c3.423,0,6.199-3.724,6.199-8.314
			C59.951,42.861,57.175,39.137,53.752,39.137z"/>
		<g>
			<path fill="#FFFFFF" d="M55.967,43.471c0,0.32-0.281,0.58-0.628,0.58H34.622c-0.346,0-0.63-0.261-0.63-0.58
				c0-0.318,0.283-0.58,0.63-0.58h20.717C55.686,42.891,55.967,43.152,55.967,43.471z"/>
		</g>
		<ellipse fill="none" cx="25.352" cy="47.452" rx="6.2" ry="8.314"/>
		<ellipse fill="#FFFFFF" cx="25.352" cy="47.452" rx="2.144" ry="2.841"/>
	</g>
	<path fill="#FFFFFF" d="M53.18,36.153c-2.889,0-6.683,0-27.984,0c3.198,3.312,7.923,12.384,4.621,23.847
		c10.826,0,27.962,0,27.962,0C60.422,50.867,58.143,41.548,53.18,36.153z"/>
	<path fill="#1A6BFF" d="M55.137,36.153c-2.889,0-6.683,0-27.983,0c3.197,3.312,7.922,12.384,4.62,23.847c10.828,0,27.96,0,27.96,0
		C62.38,50.867,60.1,41.548,55.137,36.153z"/>
	<path fill="#FFFFFF" d="M52.279,36.628c-5.495,0-21.868,0-21.868,0s6.684,8.212,4.22,21.153c9.813,0,23.446,0,23.446,0
		C59.963,48.87,57.038,40.401,52.279,36.628z"/>
	<g>
		<g>
			<path fill="#1A6BFF" d="M54.973,52.9H38.958c-0.571,0-1.036-0.463-1.036-1.035c0-0.574,0.464-1.035,1.036-1.035h16.015
				c0.571,0,1.033,0.461,1.033,1.035C56.006,52.438,55.544,52.9,54.973,52.9L54.973,52.9z"/>
		</g>
		<g>
			<path fill="#1A6BFF" d="M54.973,47.501H38.958c-0.571,0-1.036-0.463-1.036-1.034c0-0.572,0.464-1.035,1.036-1.035h16.015
				c0.571,0,1.033,0.465,1.033,1.035C56.006,47.038,55.544,47.501,54.973,47.501L54.973,47.501z"/>
		</g>
		<g>
			<path fill="#1A6BFF" d="M52.986,42.324H36.974c-0.572,0-1.036-0.465-1.036-1.035c0-0.571,0.464-1.035,1.036-1.035h16.012
				c0.572,0,1.033,0.461,1.033,1.035S53.559,42.324,52.986,42.324L52.986,42.324z"/>
		</g>
	</g>
	<g>
		<path fill="#1A6BFF" d="M53.752,20L53.752,20L53.752,20H25.333v0.001c-3.416,0.013-6.182,3.73-6.182,8.314
			c0,4.583,2.766,8.301,6.182,8.313v0.001h28.419l0,0l0,0c3.423,0,6.199-3.723,6.199-8.315C59.951,23.722,57.175,20,53.752,20z"/>
		<g>
			<path fill="#FFFFFF" d="M55.967,24.333c0,0.318-0.281,0.581-0.628,0.581H34.622c-0.346,0-0.629-0.262-0.629-0.581
				s0.282-0.58,0.629-0.58h20.717C55.686,23.752,55.967,24.013,55.967,24.333z"/>
		</g>
		<ellipse fill="none" cx="25.352" cy="28.314" rx="6.2" ry="8.314"/>
		<ellipse fill="#FFFFFF" cx="25.352" cy="28.314" rx="2.144" ry="2.841"/>
	</g>
</g>
</svg>
