<?xml version="1.0" encoding="utf-8"?>
<!-- Generator: Adobe Illustrator 16.0.0, SVG Export Plug-In . SVG Version: 6.00 Build 0)  -->
<!DOCTYPE svg PUBLIC "-//W3C//DTD SVG 1.1//EN" "http://www.w3.org/Graphics/SVG/1.1/DTD/svg11.dtd">
<svg version="1.1" xmlns="http://www.w3.org/2000/svg" xmlns:xlink="http://www.w3.org/1999/xlink" x="0px" y="0px" width="88px"
	 height="32px" viewBox="51.833 0 88 32" enable-background="new 51.833 0 88 32" xml:space="preserve">
<g id="Capa_1">
	<g>
		<path fill="#FFFFFF" d="M76.928,12.252c1.569,0,2.347,0.807,2.347,2.405v2.707c0,1.599-0.777,2.404-2.347,2.404h-3.197v-1.036
			h2.995c0.994,0,1.499-0.518,1.499-1.542v-2.36c0-1.023-0.505-1.526-1.499-1.526h-2.088c-0.978,0-1.483,0.504-1.483,1.526v7.489
			h-1.051v-7.662c0-1.598,0.777-2.406,2.347-2.406L76.928,12.252L76.928,12.252z"/>
		<path fill="#FFFFFF" d="M83.019,12.267v4.923c0,1.024,0.503,1.542,1.482,1.542h2.059c0.994,0,1.497-0.518,1.497-1.542v-4.923
			h1.037v5.097c0,1.599-0.792,2.404-2.347,2.404h-2.434c-1.568,0-2.346-0.806-2.346-2.404v-5.097H83.019z"/>
		<path fill="#FFFFFF" d="M92.881,9.156v8.034c0,1.024,0.505,1.542,1.484,1.542h2.087c0.993,0,1.497-0.518,1.497-1.542v-2.36
			c0-1.023-0.504-1.526-1.497-1.526h-2.995v-1.051h3.196c1.569,0,2.347,0.807,2.347,2.405v2.707c0,1.598-0.777,2.403-2.347,2.403
			h-2.476c-1.57,0-2.347-0.806-2.347-2.403V9.156H92.881z"/>
		<path fill="#FFFFFF" d="M102.803,9.156v10.611h-1.051V9.156H102.803z"/>
		<path fill="#FFFFFF" d="M106.691,9.156v1.671h-1.052V9.156H106.691z M106.691,12.325v7.443h-1.052v-7.443H106.691z"/>
		<path fill="#FFFFFF" d="M114.251,12.252c1.569,0,2.346,0.807,2.346,2.405v5.111c0,1.7-0.776,2.551-2.346,2.551h-3.441v-1.024
			h3.238c0.995,0,1.497-0.547,1.497-1.642V14.83c0-1.022-0.502-1.526-1.497-1.526h-2.073c-0.992,0-1.497,0.504-1.497,1.526v2.06
			c0,0.965,0.505,1.439,1.497,1.439h2.995v0.978h-3.196c-1.568,0-2.347-0.748-2.347-2.259v-2.391c0-1.598,0.778-2.406,2.347-2.406
			L114.251,12.252L114.251,12.252z"/>
		<path fill="#FFFFFF" d="M123.652,12.267v1.037h-1.841c-0.979,0-1.483,0.518-1.483,1.541v4.924h-1.051v-5.096
			c0-1.6,0.778-2.405,2.347-2.405L123.652,12.267L123.652,12.267z"/>
		<path fill="#FFFFFF" d="M130.491,12.252c1.556,0,2.35,0.807,2.35,2.405v2.707c0,1.599-0.794,2.404-2.35,2.404h-2.648
			c-1.338,0-2.002-0.662-2.002-1.986V17.19c0-1.107,0.619-1.668,1.902-1.668h3.469v0.848h-3.195c-0.779,0-1.167,0.332-1.167,0.994
			v0.346c0,0.762,0.402,1.151,1.18,1.151h2.291c0.978,0,1.469-0.504,1.469-1.525v-2.578c0-0.979-0.476-1.483-1.428-1.483h-4.29
			v-1.024L130.491,12.252L130.491,12.252z"/>
		<path fill="#FFFFFF" d="M139.896,9.156v0.879h-2.333c-0.677,0-1.008,0.345-1.008,1.036v1.181h2.098v0.937h-2.098v6.579h-1.039
			v-8.726c0-1.267,0.606-1.887,1.831-1.887H139.896z"/>
	</g>
	<path fill="none" d="M54.64,20.374c2.129,2.518,9.582,4.31,13.435-1.871"/>
	<path fill="none" d="M54.64,20.368c2.563,2.073,10.221,2.43,12.844-4.365"/>
	<g>
		<circle fill="#00AEEF" cx="59.012" cy="16.262" r="7.116"/>
		<g>
			<path d="M54.347,20.448v0.005c1.547,1.644,5.538,2.814,9.06,1.403c1.309-1.029,2.248-2.509,2.585-4.204
				C62.942,22.325,56.711,22.157,54.347,20.448z"/>
			<path fill="#FFF200" d="M65.665,13.738c-1.3,6.589-8.401,8.024-11.319,6.709v0.001c2.365,1.709,8.596,1.877,11.645-2.796
				c0.089-0.449,0.137-0.914,0.137-1.391C66.129,15.374,65.963,14.523,65.665,13.738z"/>
			<g>
				<path fill="#EC008C" d="M54.347,20.449c0.004,0.002,0.009,0.002,0.014,0.004c-0.005-0.004-0.01-0.005-0.014-0.006V20.449z"/>
				<path fill="#EC008C" d="M65.665,13.738c-0.354-0.935-0.899-1.775-1.589-2.475c0.282,6.946-6.534,9.89-9.715,9.189
					C57.288,21.757,64.368,20.316,65.665,13.738z"/>
			</g>
		</g>
	</g>
	<path fill="#FFFFFF" d="M59.178,9.225c-0.35,0.402-0.813,0.847-1.416,1.263c-0.874,0.604-2.273,1.5-3.228,1.917
		c0,0,0.472,1.443,0.229,3.338c-0.171,1.329-0.516,2.377-0.774,3.044c-0.17,0.002-0.336,0.074-0.452,0.217
		c-0.166,0.208-0.167,0.492-0.023,0.7l2.354-2.897l2.38-2.968c-0.311-0.338-0.339-0.859-0.043-1.228
		c0.327-0.408,0.922-0.473,1.331-0.146c0.407,0.326,0.472,0.922,0.146,1.33c-0.266,0.332-0.711,0.433-1.087,0.283l-4.76,5.86
		c0.221,0.062,0.468-0.007,0.621-0.197c0.111-0.141,0.146-0.314,0.115-0.479c0.597-0.399,1.545-0.965,2.809-1.42
		c1.797-0.65,3.309-0.505,3.309-0.505c0.197-1.021,0.768-2.583,1.167-3.568c0.643-1.583,1.605-2.47,1.914-2.725
		C62.545,9.943,60.941,9.264,59.178,9.225z"/>
	<g id="Capa_2">
	</g>
	<g id="Capa_3">
	</g>
</g>
<g id="Capa_2_1_">
</g>
</svg>
