<?xml version="1.0" encoding="utf-8"?>
<!-- Generator: Adobe Illustrator 16.0.0, SVG Export Plug-In . SVG Version: 6.00 Build 0)  -->
<!DOCTYPE svg PUBLIC "-//W3C//DTD SVG 1.1//EN" "http://www.w3.org/Graphics/SVG/1.1/DTD/svg11.dtd">
<svg fill="rgb(26, 107,255)" version="1.1" id="Layer_1" xmlns="http://www.w3.org/2000/svg" xmlns:xlink="http://www.w3.org/1999/xlink" x="0px" y="0px"
	 width="56px" height="56px" viewBox="12 12 56 56" enable-background="new 12 12 56 56" xml:space="preserve">
<g>
	<polygon points="48.785,63.211 23.213,63.211 23.213,23.937 26.072,23.937 26.072,22.482 21.758,22.482 21.758,64.666 
		50.239,64.666 50.239,60.164 48.785,60.164 	"/>
	<circle cx="45.166" cy="24.247" r="1.117"/>
	<path d="M52.237,20.556H30.929v15.648h21.309V20.556z M50.783,34.75h-2.381c-0.45-1.917-1.42-6.043-1.528-6.386
		c-0.536-1.713-1.64-1.254-1.95-0.012c0,0-0.576,2.128-1.118,4.099c-0.85-2.424-1.888-5.359-2.035-5.674
		c-0.964-2.08-2.965-1.524-3.524-0.013c0,0-2.288,5.671-3.271,7.987h-2.592V22.01h18.4V34.75z"/>
	<path d="M27.329,16.666V58.85h28.482V16.666H27.329z M54.357,57.396H28.784V18.12h25.574V57.396z"/>
	<rect x="30.287" y="43.736" width="22.45" height="1.604"/>
	<rect x="30.287" y="52.234" width="22.45" height="1.604"/>
	<rect x="30.287" y="47.986" width="22.45" height="1.604"/>
	<rect x="30.287" y="39.488" width="22.45" height="1.604"/>
</g>
</svg>
