<?xml version="1.0" encoding="utf-8"?>
<!-- Generator: Adobe Illustrator 16.0.0, SVG Export Plug-In . SVG Version: 6.00 Build 0)  -->
<!DOCTYPE svg PUBLIC "-//W3C//DTD SVG 1.1//EN" "http://www.w3.org/Graphics/SVG/1.1/DTD/svg11.dtd">
<svg version="1.1" id="Layer_1" xmlns="http://www.w3.org/2000/svg" xmlns:xlink="http://www.w3.org/1999/xlink" x="0px" y="0px"
	 width="40px" height="52px" viewBox="20.334 14.417 40 52" enable-background="new 20.334 14.417 40 52" xml:space="preserve">
<g>
	<path fill="#05537F" d="M30.365,52.265v-0.012c0-0.695,0.569-1.264,1.265-1.264h17.739c0.696,0,1.265,0.568,1.265,1.264v0.012
		c0,0.695-0.568,1.265-1.265,1.265H31.63C30.934,53.529,30.365,52.96,30.365,52.265z M25.604,58.104v0.011
		c0,0.695,0.569,1.265,1.265,1.265H54.13c0.696,0,1.265-0.569,1.265-1.265v-0.011c0-0.695-0.568-1.265-1.265-1.265H26.869
		C26.174,56.84,25.604,57.409,25.604,58.104z M32.296,23.582h16.352c0.873,0,1.586-0.714,1.586-1.586V19.57
		c0-0.873-0.713-1.586-1.586-1.586H46.64l-1.623-2.636c-0.184-0.297-0.617-0.54-0.967-0.54h-2.816c-0.349,0-0.739,0-0.866,0
		c-0.126,0-0.517,0-0.866,0h-2.817c-0.349,0-0.784,0.243-0.967,0.54l-1.621,2.636h-1.801c-0.873,0-1.587,0.714-1.587,1.586v2.425
		C30.709,22.868,31.423,23.582,32.296,23.582z M53.775,19.386h-2.141v2.539h2.141c2.099,0,3.808,1.708,3.808,3.809v34.048
		c0,2.1-1.709,3.808-3.808,3.808h-26.55c-2.101,0-3.809-1.708-3.809-3.808V25.733c0-2.1,1.708-3.809,3.809-3.809h2.138v-2.539
		h-2.138c-3.5,0-6.348,2.847-6.348,6.347v34.048c0,3.499,2.848,6.347,6.348,6.347h26.55c3.498,0,6.347-2.848,6.347-6.347V25.733
		C60.122,22.233,57.273,19.386,53.775,19.386z M45.857,36.254c0.725,0,1.086-0.448,1.086-1.344v-0.67
		c0-1.79-0.715-2.694-2.146-2.712h-3.224c0-0.894-0.357-1.343-1.074-1.343c-0.716,0-1.074,0.449-1.074,1.343H36.74
		c-1.79,0.008-2.685,1.127-2.685,3.357v1.343c0,2.237,0.896,3.357,2.685,3.357h1.501h1.184h4.31c0.706,0,1.062,0.442,1.062,1.329
		v0.025c0,0.887-0.359,1.329-1.073,1.329h-4.298h-1.184H36.74c-0.358,0-0.537-0.223-0.537-0.671c0-0.903-0.358-1.356-1.075-1.356
		c-0.716,0.01-1.074,0.457-1.074,1.342v0.685c0,1.781,0.716,2.678,2.148,2.686h3.222c0,0.895,0.358,1.344,1.074,1.344
		c0.716,0,1.074-0.444,1.074-1.33V44.94h2.712c1.772,0,2.658-1.12,2.658-3.357v-1.329c0-2.238-0.895-3.357-2.685-3.357h-1.262
		h-1.424h-4.296c-0.716,0-1.074-0.448-1.074-1.343c0-0.885,0.348-1.33,1.047-1.33h4.323h1.424h1.262c0.35,0,0.523,0.22,0.523,0.659
		v0.026C44.782,35.806,45.141,36.254,45.857,36.254z"/>
</g>
</svg>
